<svg width="48" height="48" viewBox="0 0 48 48" fill="none" xmlns="http://www.w3.org/2000/svg">
<path d="M40.6819 0H7.31815C3.27645 0 0 3.27645 0 7.31815V40.6819C0 44.7236 3.27645 48 7.31815 48H40.6819C44.7236 48 48 44.7236 48 40.6819V7.31815C48 3.27645 44.7236 0 40.6819 0Z" fill="#00BC59"/>
<path d="M9.3521 24.6738C9.21264 24.6744 9.07467 24.7026 8.94613 24.7567C8.81758 24.8108 8.70098 24.8897 8.60303 24.989C8.50508 25.0882 8.4277 25.2059 8.37533 25.3351C8.32297 25.4644 8.29665 25.6027 8.29789 25.7422C8.30038 26.0219 8.41315 26.2894 8.61172 26.4865C8.81029 26.6836 9.0786 26.7944 9.35838 26.7948C9.63964 26.7948 9.90938 26.6831 10.1083 26.4842C10.3071 26.2853 10.4189 26.0156 10.4189 25.7343C10.4189 25.4531 10.3071 25.1833 10.1083 24.9844C9.90938 24.7856 9.63964 24.6738 9.35838 24.6738H9.3521Z" fill="white"/>
<path d="M15.3967 15.7861L15.2396 15.8678C14.6777 15.8952 14.1489 16.1419 13.767 16.5549C13.3851 16.968 13.1805 17.5145 13.1972 18.0768L13.2066 19.4499H11.8429C11.2585 19.4499 10.7431 20.0155 10.7526 20.6534C10.756 20.9546 10.8675 21.2445 11.0668 21.4703C11.1623 21.5844 11.2811 21.6767 11.4152 21.7409C11.5494 21.8051 11.6958 21.8398 11.8445 21.8427H13.1108L13.1281 24.5905L11.8712 24.5984C11.7281 24.5994 11.5867 24.6288 11.4551 24.6849C11.3235 24.741 11.2043 24.8227 11.1045 24.9252C10.8944 25.1376 10.777 25.4245 10.7777 25.7233C10.7787 26.0177 10.8955 26.2999 11.1029 26.5088C11.2032 26.6125 11.3233 26.695 11.4561 26.7514C11.5889 26.8078 11.7316 26.837 11.8759 26.8372H13.1469L13.1752 28.2323C13.1862 28.8125 13.4195 29.3664 13.8271 29.7795C14.2346 30.1926 14.7853 30.4334 15.3653 30.4523H15.4973L15.4077 15.9982L15.3967 15.7861Z" fill="white"/>
<path d="M36.9012 24.4475H35.924C35.9816 23.9884 36.0089 23.5261 36.0057 23.0634C36.002 22.6066 35.9689 22.1506 35.9067 21.6981H36.8855C37.0364 21.6956 37.1848 21.6601 37.3205 21.5941C37.4562 21.5282 37.5759 21.4334 37.6711 21.3163C37.882 21.0798 37.9931 20.7708 37.9811 20.4542C37.9691 20.1375 37.8349 19.8378 37.6067 19.618C37.4161 19.4218 37.1558 19.3089 36.8824 19.3038H35.3914C33.7889 15.1875 29.1778 12.0972 24.587 12.0972H24.5242L18.8682 12.1317C17.5862 12.1317 16.5493 13.2723 16.5572 14.6565L16.6546 30.5245L24.3938 30.4774C26.488 30.4648 28.4142 29.7562 29.8188 28.4837C30.5385 27.83 31.11 27.0298 31.4948 26.1369C31.8796 25.244 32.0688 24.279 32.0497 23.3069C32.023 19.0304 28.8101 15.8191 24.565 15.8191H24.5148L19.6695 15.8489V16.1632C19.7041 17.332 20.9421 17.9432 22.1518 17.9432L22.9531 17.9118L25.1369 17.9102H25.1715C25.8338 17.8946 26.4917 18.0228 27.0998 18.2858C27.7079 18.5489 28.2517 18.9407 28.6939 19.4342C29.558 20.3988 30.0371 21.7405 30.0466 23.2142C30.0561 23.8928 29.9156 24.565 29.635 25.1829C29.3545 25.8008 28.9408 26.3491 28.4236 26.7884C27.3316 27.6885 25.9566 28.1738 24.5415 28.1584L18.9782 28.083L18.8038 14.3611L24.5493 14.3297H24.6012C26.9448 14.3529 29.1937 15.2583 30.8997 16.8654C32.6781 18.5339 33.6648 20.7146 33.6789 23.0068C33.7072 27.8207 29.8455 31.761 25.0709 31.7908L17.7873 31.8348V32.138C17.7888 32.3774 17.8377 32.614 17.9313 32.8343C18.0248 33.0546 18.1612 33.2542 18.3325 33.4214C18.5038 33.5886 18.7066 33.7201 18.9291 33.8083C19.1515 33.8965 19.3893 33.9397 19.6287 33.9353H25.0788C29.6019 33.9353 33.836 30.9754 35.4118 26.7256L36.9107 26.7743C37.0499 26.7719 37.1872 26.7419 37.3148 26.686C37.4423 26.6302 37.5575 26.5497 37.6538 26.4491C37.8772 26.2232 38.0025 25.9184 38.0026 25.6007C37.9979 24.988 37.4841 24.4475 36.9012 24.4475Z" fill="white"/>
<path d="M40.2417 19.7959C40.0326 19.5888 39.7505 19.472 39.4562 19.4707C39.157 19.4707 38.8701 19.5896 38.6585 19.8011C38.447 20.0126 38.3281 20.2996 38.3281 20.5987C38.3281 20.8979 38.447 21.1848 38.6585 21.3964C38.8701 21.6079 39.157 21.7268 39.4562 21.7268C39.6793 21.7254 39.897 21.6579 40.0818 21.5328C40.2666 21.4077 40.4101 21.2306 40.4942 21.0239C40.5783 20.8172 40.5992 20.5902 40.5542 20.3716C40.5093 20.153 40.4005 19.9527 40.2417 19.7959Z" fill="white"/>
</svg>
