<svg width="278" height="55" viewBox="0 0 278 55" fill="none" xmlns="http://www.w3.org/2000/svg">
<g clip-path="url(#clip0_2_33)">
<path d="M249.241 41.1193H241.558V13.8477H252.049L259.733 32.2446H259.794L267.354 13.8477H278V41.1193H270.317V24.0936H270.255L263.343 41.1193H256.462L249.303 24.1317H249.241V41.1193Z" fill="#80EF6E"/>
<path d="M217.221 41.1193H208.766L219.813 13.8477H229.255L239.993 41.1193H231.569L229.872 36.3963H218.887L217.221 41.1193ZM224.38 19.98L220.43 30.7973H228.329L224.441 19.98H224.38Z" fill="#80EF6E"/>
<path d="M181.511 41.1193H172.408L162.781 13.8477H171.05L177.314 33.3873H177.376L183.671 13.8477H192.62L199.007 33.3873H199.038L205.24 13.8477H213.479L203.882 41.1193H194.78L188.207 21.5798H188.145L181.511 41.1193Z" fill="#80EF6E"/>
<path d="M146.174 41.7669C137.627 41.7669 131.887 36.244 131.887 28.0549C131.887 19.1422 138.182 13.1622 147.563 13.1622C154.722 13.1622 160.214 16.7807 161.14 22.1512L153.518 23.7509C152.932 21.4656 150.464 19.942 147.563 19.942C143.089 19.942 140.065 23.0653 140.065 27.7883C140.065 32.2447 143.49 35.2918 148.581 35.2918C152.593 35.2918 155.617 33.235 155.925 30.3784H144.2V25.3887H163.763V41.1194H157.345L157.036 36.5487H157.005C154.938 39.7101 150.772 41.7669 146.174 41.7669Z" fill="#80EF6E"/>
<path d="M129.348 41.1193H121.233V13.8477H129.348V41.1193Z" fill="#80EF6E"/>
<path d="M87.7345 41.1193H78.6316L69.0042 13.8477H77.2739L83.5379 33.3873H83.5996L89.8945 13.8477H98.843L105.23 33.3873H105.261L111.464 13.8477H119.702L110.106 41.1193H101.003L94.4305 21.5798H94.3687L87.7345 41.1193Z" fill="#80EF6E"/>
<path d="M0 20.6791C0 13.7033 0 10.2153 1.35759 7.55091C2.55175 5.20723 4.45723 3.30175 6.80091 2.10759C9.46533 0.75 12.9532 0.75 19.9291 0.75H33.4525C40.4284 0.75 43.9163 0.75 46.5807 2.10759C48.9244 3.30175 50.8299 5.20723 52.024 7.55091C53.3816 10.2153 53.3816 13.7032 53.3816 20.6791V34.2025C53.3816 41.1784 53.3816 44.6663 52.024 47.3307C50.8299 49.6744 48.9244 51.5799 46.5807 52.774C43.9163 54.1316 40.4284 54.1316 33.4525 54.1316H19.9291C12.9533 54.1316 9.46533 54.1316 6.80091 52.774C4.45723 51.5799 2.55175 49.6744 1.35759 47.3307C0 44.6663 0 41.1784 0 34.2025V20.6791Z" fill="#80EF6E"/>
<path d="M38.6503 17.3286C38.6669 17.2516 38.7351 17.1966 38.8139 17.1966H46.8544C46.9651 17.1966 47.0453 17.3023 47.0154 17.409L40.2233 41.6535C40.2031 41.7258 40.1372 41.7757 40.0622 41.7757H32.6399C32.5658 41.7757 32.5004 41.7268 32.4795 41.6557L26.859 22.565C26.7835 22.3085 26.4199 22.3091 26.3453 22.5659L20.8002 41.6551C20.7794 41.7265 20.714 41.7757 20.6395 41.7757H13.325C13.25 41.7757 13.1842 41.7258 13.164 41.6536L6.36626 17.409C6.33635 17.3023 6.41653 17.1966 6.52731 17.1966H14.561C14.6403 17.1966 14.7086 17.2522 14.7248 17.3297L17.3258 29.8024C17.3819 30.0712 17.7581 30.0913 17.8425 29.83L23.2052 13.2225C23.2275 13.1534 23.2918 13.1066 23.3644 13.1066H30.0038C30.0766 13.1066 30.1411 13.1538 30.1632 13.2232L35.4432 29.8329C35.5263 30.0943 35.9021 30.0763 35.9599 29.8082L38.6503 17.3286Z" fill="#0D1311"/>
</g>
<defs>
<clipPath id="clip0_2_33">
<rect width="278" height="53.3816" fill="white" transform="translate(0 0.75)"/>
</clipPath>
</defs>
</svg>
