<svg width="132" height="32" viewBox="0 0 132 32" fill="none" xmlns="http://www.w3.org/2000/svg">
<g clip-path="url(#clip0_1438_1027)">
<path fill-rule="evenodd" clip-rule="evenodd" d="M94.8044 3.09164C94.8044 4.39333 93.7129 5.44011 92.3965 5.44011C91.0491 5.44011 89.9247 4.39333 89.9247 3.09164C89.9247 1.78994 91.0491 0.743164 92.3965 0.743164C93.7129 0.743164 94.8044 1.78994 94.8044 3.09164ZM93.9048 23.9097H90.8242C90.5664 23.9097 90.4074 23.7506 90.4074 23.4975V8.4539C90.4074 8.20079 90.5683 8.0417 90.8242 8.0417H93.9048C94.1937 8.0417 94.3217 8.20079 94.3217 8.4539V23.4975C94.3217 23.7506 94.1608 23.9097 93.9048 23.9097ZM62.1591 14.2609H70.0224C70.2162 14.2609 70.3442 14.1343 70.3113 13.9445C70.0224 12.1041 68.2252 10.8024 65.9783 10.8024C63.7953 10.8024 62.0622 12.1023 61.8062 13.912C61.7733 14.1018 61.9342 14.2609 62.1591 14.2609ZM57.8279 15.8808C57.8279 11.1513 61.2943 7.69276 66.0112 7.69276C70.6001 7.69276 74.3883 10.7716 74.0647 16.5117C74.0647 16.8625 73.8087 17.1156 73.4229 17.1156H62.0622C61.8373 17.1156 61.7404 17.2747 61.7733 17.4971C61.9342 19.5291 63.7953 21.0839 66.0734 21.0839C67.7407 21.0839 69.154 20.3228 69.8597 19.0537C69.9566 18.8313 70.0845 18.7355 70.3094 18.7355H73.3589C73.6167 18.7355 73.7776 18.9253 73.6807 19.2435C72.7502 22.2284 69.7975 24.2586 66.364 24.2586C61.3254 24.2586 57.8279 20.8308 57.8279 15.8808ZM56.0819 23.9097H43.1799C42.9221 23.9097 42.7612 23.7506 42.7667 23.4975V21.6245C42.7667 21.3696 42.8307 21.1165 43.0227 20.8941L50.9811 11.69C51.142 11.4984 51.014 11.2453 50.7891 11.2453H43.4395C43.1836 11.2453 43.0227 11.0862 43.0227 10.8331V8.45207C43.0227 8.19896 43.1836 8.03986 43.4395 8.03986H55.7949C56.0508 8.03986 56.2117 8.19896 56.2117 8.45207V10.2618C56.2117 10.58 56.1148 10.8023 55.89 11.0555L47.8987 20.2595C47.7378 20.4512 47.8987 20.7043 48.1235 20.7043H56.0819C56.3379 20.7043 56.4988 20.8634 56.4988 21.1165V23.4975C56.4988 23.7506 56.3379 23.9097 56.0819 23.9097ZM87.3268 8.04167H85.2079C83.2498 8.04167 81.9993 8.73952 81.3246 10.231C81.1327 10.6433 80.586 10.5492 80.586 10.1352V8.45388C80.586 8.20077 80.4251 8.04167 80.1692 8.04167H77.4725C77.2166 8.04167 77.0557 8.20077 77.0557 8.45388V23.4975C77.0557 23.7506 77.2166 23.9097 77.4725 23.9097H80.5531C80.842 23.9097 80.97 23.7199 80.97 23.4975V12.7712C80.97 12.3897 81.2588 12.01 81.6757 12.01H87.3231C87.5791 12.01 87.74 11.8509 87.74 11.5978V8.45568C87.7437 8.20076 87.5828 8.04167 87.3268 8.04167ZM105.514 20.9267C102.85 20.9267 100.956 18.8313 100.956 15.9115C100.956 13.055 102.85 11.0247 105.514 11.0247C108.178 11.0247 110.103 13.055 110.103 15.9115C110.103 18.8313 108.176 20.9267 105.514 20.9267ZM105.545 24.2586C110.487 24.2586 114.017 20.7676 114.017 15.8808C114.017 11.1206 110.487 7.69276 105.545 7.69276C100.571 7.69276 97.0092 11.1206 97.0092 15.8808C97.0092 20.7676 100.571 24.2586 105.545 24.2586ZM131.971 14.1994V23.4975C131.971 23.7506 131.81 23.9097 131.552 23.9097H128.472C128.216 23.9097 128.055 23.7506 128.055 23.4975V14.8973C128.055 12.4204 126.802 11.0247 124.588 11.0247C122.022 11.0247 120.641 12.4855 120.641 15.3095V23.4975C120.641 23.7506 120.48 23.9097 120.224 23.9097H117.144C116.888 23.9097 116.727 23.7506 116.727 23.4975V8.45389C116.727 8.20078 116.888 8.04169 117.144 8.04169H119.84C120.096 8.04169 120.257 8.20078 120.257 8.48643V9.69231C120.257 10.0738 120.643 10.1696 120.899 9.8514C121.991 8.45389 123.691 7.69276 125.713 7.69276C129.435 7.69276 131.971 9.97796 131.971 14.1994Z" fill="white"/>
<path fill-rule="evenodd" clip-rule="evenodd" d="M8.89212 31.4575L22.5545 31.4575C27.4655 31.4575 31.4463 27.521 31.4463 22.6647L31.4463 9.15434C31.4463 4.29796 27.4655 0.361465 22.5545 0.361465L8.89212 0.361463C3.98108 0.361463 0.00030755 4.29796 0.000307126 9.15434L0.000305944 22.6647C0.00030552 27.521 3.98108 31.4575 8.89212 31.4575ZM23.0506 21.7956C20.2527 20.0701 16.5352 17.9523 13.4793 16.32C12.7376 15.9243 11.7451 16.072 11.1367 16.9304C10.0019 18.5292 8.64298 20.5467 7.71448 22.1368C7.32851 22.7806 7.84433 23.6319 8.61629 23.6319L22.4601 23.6319C23.4579 23.6319 23.8759 22.383 23.0506 21.7956ZM17.9355 15.7891C14.9829 14.2325 10.842 11.8632 7.90001 10.0726C6.99109 9.51855 7.35394 8.18704 8.41406 8.18881C10.1509 8.18881 12.9734 8.18837 15.7816 8.18793C18.5614 8.18748 21.3273 8.18706 23.012 8.18706C23.8605 8.18706 24.2963 9.05597 23.9352 9.66455C22.7168 11.7172 21.3471 13.7892 20.2105 15.3353C19.7036 16.0248 18.6755 16.1796 17.9355 15.7891Z" fill="white"/>
</g>
<defs>
<clipPath id="clip0_1438_1027">
<rect width="132" height="32" fill="white"/>
</clipPath>
</defs>
</svg>
